<mxfile host="app.diagrams.net" agent="Mozilla/5.0 (Macintosh; Intel Mac OS X 10_15_7) AppleWebKit/605.1.15 (KHTML, like Gecko) Version/18.4 Safari/605.1.15" version="27.0.5">
  <diagram name="Page-1" id="BRWmxxQAnmFGgmKF5j1A">
    <mxGraphModel dx="930" dy="602" grid="1" gridSize="10" guides="1" tooltips="1" connect="1" arrows="1" fold="1" page="1" pageScale="1" pageWidth="1654" pageHeight="2336" background="light-dark(#FFFFFF,#FFFFFF)" math="0" shadow="0">
      <root>
        <mxCell id="0" />
        <mxCell id="1" parent="0" />
        <mxCell id="B2nTUuf21BXZV8lHGEwL-1" value="&lt;span style=&quot;color: light-dark(rgb(0, 0, 0), rgb(0, 0, 0));&quot;&gt;Start&lt;/span&gt;" style="rounded=1;whiteSpace=wrap;html=1;fillColor=light-dark(#FFFFFF,#FFFFFF);strokeColor=light-dark(#000000,#171717);" vertex="1" parent="1">
          <mxGeometry x="200" y="40" width="160" height="40" as="geometry" />
        </mxCell>
        <mxCell id="B2nTUuf21BXZV8lHGEwL-2" value="&lt;span style=&quot;color: light-dark(transparent, rgb(0, 0, 0));&quot;&gt;MIDI Data&lt;/span&gt;" style="rounded=0;whiteSpace=wrap;html=1;fillColor=light-dark(#FFFFFF,#98D7BB);strokeColor=light-dark(#000000,#000000);" vertex="1" parent="1">
          <mxGeometry x="200" y="120" width="160" height="40" as="geometry" />
        </mxCell>
        <mxCell id="B2nTUuf21BXZV8lHGEwL-4" value="&lt;span style=&quot;color: light-dark(transparent, rgb(0, 0, 0));&quot;&gt;MIDI to Note Vector&lt;/span&gt;" style="rounded=0;whiteSpace=wrap;html=1;fillColor=light-dark(#FFFFFF,#B4E1C1);strokeColor=light-dark(#000000,#000000);" vertex="1" parent="1">
          <mxGeometry x="200" y="200" width="160" height="40" as="geometry" />
        </mxCell>
        <mxCell id="B2nTUuf21BXZV8lHGEwL-5" value="&lt;span style=&quot;color: light-dark(transparent, rgb(0, 0, 0));&quot;&gt;Note Data&lt;/span&gt;" style="rounded=0;whiteSpace=wrap;html=1;fillColor=light-dark(#FFFFFF,#B7DDE8);strokeColor=light-dark(#000000,#000000);" vertex="1" parent="1">
          <mxGeometry x="200" y="280" width="160" height="40" as="geometry" />
        </mxCell>
        <mxCell id="B2nTUuf21BXZV8lHGEwL-6" value="&lt;span style=&quot;color: light-dark(rgb(0, 0, 0), rgb(0, 0, 0));&quot;&gt;Encoder &lt;i&gt;&lt;font style=&quot;font-size: 7px;&quot;&gt;(&lt;/font&gt;&lt;span style=&quot;caret-color: rgb(0, 0, 0); text-align: start;&quot;&gt;&lt;font style=&quot;font-size: 7px;&quot;&gt;Dense -&amp;gt; μ &amp;amp; σ)&lt;/font&gt;&lt;/span&gt;&lt;/i&gt;&lt;/span&gt;" style="rounded=0;whiteSpace=wrap;html=1;fillColor=light-dark(#FFFFFF,#C5C3F0);strokeColor=light-dark(#000000,#000000);" vertex="1" parent="1">
          <mxGeometry x="200" y="360" width="160" height="40" as="geometry" />
        </mxCell>
        <mxCell id="B2nTUuf21BXZV8lHGEwL-7" value="&lt;span style=&quot;caret-color: rgb(0, 0, 0); text-align: start; color: light-dark(rgb(0, 0, 0), rgb(0, 0, 0));&quot;&gt;Reparameterization&lt;/span&gt;&lt;div&gt;&lt;font style=&quot;font-size: 7px; color: light-dark(rgb(0, 0, 0), rgb(0, 0, 0));&quot;&gt;&lt;i&gt;&amp;nbsp;&lt;span style=&quot;caret-color: rgb(0, 0, 0); text-align: start;&quot;&gt;z = μ + σ * ε&lt;/span&gt;&lt;/i&gt;&lt;/font&gt;&lt;/div&gt;" style="rounded=0;whiteSpace=wrap;html=1;fillColor=light-dark(#FFFFFF,#BEA9F2);strokeColor=light-dark(#000000,#000000);" vertex="1" parent="1">
          <mxGeometry x="200" y="440" width="160" height="40" as="geometry" />
        </mxCell>
        <mxCell id="B2nTUuf21BXZV8lHGEwL-8" value="&lt;span style=&quot;color: light-dark(rgb(0, 0, 0), rgb(0, 0, 0));&quot;&gt;Decoder&amp;nbsp;&lt;i&gt;&lt;font style=&quot;font-size: 7px;&quot;&gt;(&lt;/font&gt;&lt;span style=&quot;caret-color: rgb(0, 0, 0); text-align: start;&quot;&gt;&lt;font style=&quot;font-size: 7px;&quot;&gt;Dense -&amp;gt; Reshape)&lt;/font&gt;&lt;/span&gt;&lt;/i&gt;&lt;/span&gt;" style="rounded=0;whiteSpace=wrap;html=1;fillColor=light-dark(#FFFFFF,#B293F1);strokeColor=light-dark(#000000,#000000);" vertex="1" parent="1">
          <mxGeometry x="200" y="520" width="160" height="40" as="geometry" />
        </mxCell>
        <mxCell id="B2nTUuf21BXZV8lHGEwL-9" value="&lt;font&gt;&lt;span style=&quot;caret-color: rgb(0, 0, 0); color: light-dark(rgb(0, 0, 0), rgb(0, 0, 0));&quot;&gt;Evaluation&lt;/span&gt;&lt;/font&gt;" style="rounded=0;whiteSpace=wrap;html=1;fillColor=light-dark(#FFFFFF,#A87DEE);strokeColor=light-dark(#000000,#000000);" vertex="1" parent="1">
          <mxGeometry x="200" y="600" width="160" height="40" as="geometry" />
        </mxCell>
        <mxCell id="B2nTUuf21BXZV8lHGEwL-10" value="&lt;span style=&quot;color: light-dark(rgb(0, 0, 0), rgb(0, 0, 0));&quot;&gt;End&lt;/span&gt;" style="rounded=1;whiteSpace=wrap;html=1;fillColor=light-dark(#FFFFFF,#FFFFFF);strokeColor=light-dark(#000000,#171717);" vertex="1" parent="1">
          <mxGeometry x="200" y="680" width="160" height="40" as="geometry" />
        </mxCell>
        <mxCell id="B2nTUuf21BXZV8lHGEwL-11" value="" style="endArrow=classic;html=1;rounded=0;exitX=0.5;exitY=1;exitDx=0;exitDy=0;entryX=0.5;entryY=0;entryDx=0;entryDy=0;strokeColor=light-dark(#000000,#000000);" edge="1" parent="1" source="B2nTUuf21BXZV8lHGEwL-1" target="B2nTUuf21BXZV8lHGEwL-2">
          <mxGeometry width="50" height="50" relative="1" as="geometry">
            <mxPoint x="310" y="170" as="sourcePoint" />
            <mxPoint x="360" y="120" as="targetPoint" />
          </mxGeometry>
        </mxCell>
        <mxCell id="B2nTUuf21BXZV8lHGEwL-12" value="" style="endArrow=classic;html=1;rounded=0;exitX=0.5;exitY=1;exitDx=0;exitDy=0;entryX=0.5;entryY=0;entryDx=0;entryDy=0;strokeColor=light-dark(#000000,#000000);" edge="1" parent="1">
          <mxGeometry width="50" height="50" relative="1" as="geometry">
            <mxPoint x="279.83" y="160" as="sourcePoint" />
            <mxPoint x="279.83" y="200" as="targetPoint" />
          </mxGeometry>
        </mxCell>
        <mxCell id="B2nTUuf21BXZV8lHGEwL-13" value="" style="endArrow=classic;html=1;rounded=0;exitX=0.5;exitY=1;exitDx=0;exitDy=0;entryX=0.5;entryY=0;entryDx=0;entryDy=0;strokeColor=light-dark(#000000,#000000);" edge="1" parent="1">
          <mxGeometry width="50" height="50" relative="1" as="geometry">
            <mxPoint x="279.83" y="240" as="sourcePoint" />
            <mxPoint x="279.83" y="280" as="targetPoint" />
          </mxGeometry>
        </mxCell>
        <mxCell id="B2nTUuf21BXZV8lHGEwL-14" value="" style="endArrow=classic;html=1;rounded=0;exitX=0.5;exitY=1;exitDx=0;exitDy=0;entryX=0.5;entryY=0;entryDx=0;entryDy=0;strokeColor=light-dark(#000000,#000000);" edge="1" parent="1">
          <mxGeometry width="50" height="50" relative="1" as="geometry">
            <mxPoint x="279.83" y="320" as="sourcePoint" />
            <mxPoint x="279.83" y="360" as="targetPoint" />
          </mxGeometry>
        </mxCell>
        <mxCell id="B2nTUuf21BXZV8lHGEwL-15" value="" style="endArrow=classic;html=1;rounded=0;exitX=0.5;exitY=1;exitDx=0;exitDy=0;entryX=0.5;entryY=0;entryDx=0;entryDy=0;strokeColor=light-dark(#000000,#000000);" edge="1" parent="1">
          <mxGeometry width="50" height="50" relative="1" as="geometry">
            <mxPoint x="279.83" y="400" as="sourcePoint" />
            <mxPoint x="279.83" y="440" as="targetPoint" />
          </mxGeometry>
        </mxCell>
        <mxCell id="B2nTUuf21BXZV8lHGEwL-16" value="" style="endArrow=classic;html=1;rounded=0;exitX=0.5;exitY=1;exitDx=0;exitDy=0;entryX=0.5;entryY=0;entryDx=0;entryDy=0;strokeColor=light-dark(#000000,#000000);" edge="1" parent="1">
          <mxGeometry width="50" height="50" relative="1" as="geometry">
            <mxPoint x="279.83" y="480" as="sourcePoint" />
            <mxPoint x="279.83" y="520" as="targetPoint" />
          </mxGeometry>
        </mxCell>
        <mxCell id="B2nTUuf21BXZV8lHGEwL-17" value="" style="endArrow=classic;html=1;rounded=0;exitX=0.5;exitY=1;exitDx=0;exitDy=0;entryX=0.5;entryY=0;entryDx=0;entryDy=0;strokeColor=light-dark(#000000,#000000);" edge="1" parent="1">
          <mxGeometry width="50" height="50" relative="1" as="geometry">
            <mxPoint x="279.83" y="560" as="sourcePoint" />
            <mxPoint x="279.83" y="600" as="targetPoint" />
          </mxGeometry>
        </mxCell>
        <mxCell id="B2nTUuf21BXZV8lHGEwL-18" value="" style="endArrow=classic;html=1;rounded=0;exitX=0.5;exitY=1;exitDx=0;exitDy=0;entryX=0.5;entryY=0;entryDx=0;entryDy=0;strokeColor=light-dark(#000000,#000000);" edge="1" parent="1">
          <mxGeometry width="50" height="50" relative="1" as="geometry">
            <mxPoint x="279.83" y="640" as="sourcePoint" />
            <mxPoint x="279.83" y="680" as="targetPoint" />
          </mxGeometry>
        </mxCell>
      </root>
    </mxGraphModel>
  </diagram>
</mxfile>
